{"accessors" : [{"bufferView" : 0, "byteOffset" : 0, "componentType" : 5123, "count" : 63054, "type" : "SCALAR", "max" : [10510], "min" : [0]}, {"bufferView" : 1, "byteOffset" : 0, "componentType" : 5126, "count" : 10511, "type" : "VEC3", "max" : [-1.0089681148529053, 5.3473591804504395, 19.142911911010742], "min" : [-12.872745513916016, -5.190548896789551, 0.24058368802070618], "name" : "POSITION"}, {"bufferView" : 1, "byteOffset" : 12, "componentType" : 5126, "count" : 10511, "type" : "VEC3", "max" : [0.9998677968978882, 0.9996497631072998, 0.9999092817306519], "min" : [-0.9995452165603638, -1.0000003576278687, -0.9996209144592285], "name" : "NORMAL"}], "asset" : {"generator" : "Aspose.3D 24.9.1", "version" : "2.0"}, "buffers" : [{"uri" : "data:application/octet-stream;base64,", "byteLength" : 378380}], "bufferViews" : [{"buffer" : 0, "byteOffset" : 0, "byteLength" : 126108, "target" : 34963}, {"buffer" : 0, "byteOffset" : 126112, "byteLength" : 252264, "byteStride" : 24, "target" : 34962}], "meshes" : [{"primitives" : [{"attributes" : {"POSITION" : 1, "NORMAL" : 2}, "indices" : 0, "mode" : 4}], "name" : ""}], "nodes" : [{"mesh" : 0, "name" : "mmGroup0"}], "scene" : 0, "scenes" : [{"nodes" : [0]}]}